<svg width="428" height="926" viewBox="0 0 428 926" fill="none" xmlns="http://www.w3.org/2000/svg">
<g clip-path="url(#clip0_721_6868)">
<rect width="428" height="926" fill="#191818"/>
<rect x="38.6886" y="-27.3702" width="49.2004" height="67.1688" rx="7" transform="rotate(23.611 38.6886 -27.3702)" stroke="#2D2D2D" stroke-width="2"/>
<line x1="39.644" y1="-6.87611" x2="68.8353" y2="5.88393" stroke="#2D2D2D" stroke-width="2" stroke-linecap="round"/>
<line x1="35.7377" y1="2.06187" x2="64.9291" y2="14.8219" stroke="#2D2D2D" stroke-width="2" stroke-linecap="round"/>
<line x1="31.8305" y1="10.9999" x2="61.0218" y2="23.7599" stroke="#2D2D2D" stroke-width="2" stroke-linecap="round"/>
<line x1="28.2787" y1="19.1254" x2="57.4701" y2="31.8854" stroke="#2D2D2D" stroke-width="2" stroke-linecap="round"/>
<line x1="24.3715" y1="28.0633" x2="53.5629" y2="40.8234" stroke="#2D2D2D" stroke-width="2" stroke-linecap="round"/>
<line x1="84.9542" y1="13.1767" x2="75.8103" y2="34.0953" stroke="#2D2D2D" stroke-width="2" stroke-linecap="round"/>
<path d="M94.7346 -11.5821L96.1654 -10.9566C98.1895 -10.0718 99.1133 -7.71356 98.2285 -5.6894L75.7694 45.6906L67.0083 41.861L89.4674 -9.51902C90.3522 -11.5432 92.7104 -12.4669 94.7346 -11.5821Z" stroke="#2D2D2D" stroke-width="2"/>
<line x1="84.963" y1="0.35178" x2="93.2865" y2="3.99012" stroke="#2D2D2D" stroke-width="2"/>
<path d="M66.7121 43.2901L74.9942 46.8842L65.7513 56.8337L66.7121 43.2901Z" stroke="#2D2D2D" stroke-width="2"/>
<rect x="332.13" y="181.987" width="49.2004" height="67.1688" rx="7" transform="rotate(-36.3569 332.13 181.987)" stroke="#2D2D2D" stroke-width="2"/>
<line x1="350.35" y1="191.416" x2="376.007" y2="172.53" stroke="#2D2D2D" stroke-width="2" stroke-linecap="round"/>
<line x1="356.133" y1="199.272" x2="381.79" y2="180.386" stroke="#2D2D2D" stroke-width="2" stroke-linecap="round"/>
<line x1="361.916" y1="207.128" x2="387.572" y2="188.242" stroke="#2D2D2D" stroke-width="2" stroke-linecap="round"/>
<line x1="367.172" y1="214.27" x2="392.829" y2="195.384" stroke="#2D2D2D" stroke-width="2" stroke-linecap="round"/>
<line x1="372.956" y1="222.125" x2="398.612" y2="203.239" stroke="#2D2D2D" stroke-width="2" stroke-linecap="round"/>
<line x1="390.387" y1="162.226" x2="403.921" y2="180.611" stroke="#2D2D2D" stroke-width="2" stroke-linecap="round"/>
<path d="M373.848 141.367L375.106 140.441C376.885 139.132 379.389 139.512 380.698 141.292L413.94 186.45L406.239 192.119L372.998 146.96C371.688 145.181 372.069 142.677 373.848 141.367Z" stroke="#2D2D2D" stroke-width="2"/>
<line x1="379.289" y1="155.8" x2="386.605" y2="150.415" stroke="#2D2D2D" stroke-width="2"/>
<path d="M407.329 193.09L414.585 187.719L418.573 200.7L407.329 193.09Z" stroke="#2D2D2D" stroke-width="2"/>
<rect x="354.458" y="155.5" width="5.78069" height="15.962" rx="2.89035" transform="rotate(-36.3569 354.458 155.5)" stroke="#2D2D2D" stroke-width="2"/>
<rect x="345.146" y="162.354" width="5.78069" height="15.962" rx="2.89035" transform="rotate(-36.3569 345.146 162.354)" stroke="#2D2D2D" stroke-width="2"/>
<rect x="335.171" y="169.697" width="5.78069" height="15.962" rx="2.89035" transform="rotate(-36.3569 335.171 169.697)" stroke="#2D2D2D" stroke-width="2"/>
<rect x="220.235" y="491.995" width="49.2004" height="67.1688" rx="7" transform="rotate(11.8649 220.235 491.995)" stroke="#2D2D2D" stroke-width="2"/>
<line x1="225.343" y1="511.866" x2="256.521" y2="518.416" stroke="#2D2D2D" stroke-width="2" stroke-linecap="round"/>
<line x1="223.338" y1="521.412" x2="254.515" y2="527.962" stroke="#2D2D2D" stroke-width="2" stroke-linecap="round"/>
<line x1="221.333" y1="530.958" x2="252.51" y2="537.508" stroke="#2D2D2D" stroke-width="2" stroke-linecap="round"/>
<line x1="219.509" y1="539.636" x2="250.687" y2="546.186" stroke="#2D2D2D" stroke-width="2" stroke-linecap="round"/>
<line x1="217.504" y1="549.183" x2="248.681" y2="555.733" stroke="#2D2D2D" stroke-width="2" stroke-linecap="round"/>
<line x1="273.787" y1="522.275" x2="269.093" y2="544.617" stroke="#2D2D2D" stroke-width="2" stroke-linecap="round"/>
<path d="M278.321 496.043L279.85 496.364C282.011 496.819 283.396 498.939 282.942 501.101L271.412 555.977L262.055 554.012L273.584 499.135C274.039 496.973 276.159 495.589 278.321 496.043Z" stroke="#2D2D2D" stroke-width="2"/>
<line x1="271.184" y1="509.717" x2="280.074" y2="511.584" stroke="#2D2D2D" stroke-width="2"/>
<path d="M262.057 555.471L270.897 557.304L263.873 568.926L262.057 555.471Z" stroke="#2D2D2D" stroke-width="2"/>
<rect x="254.863" y="490.999" width="5.78069" height="15.962" rx="2.89035" transform="rotate(11.8649 254.863 490.999)" stroke="#2D2D2D" stroke-width="2"/>
<rect x="243.549" y="488.622" width="5.78069" height="15.962" rx="2.89035" transform="rotate(11.8649 243.549 488.622)" stroke="#2D2D2D" stroke-width="2"/>
<rect x="231.427" y="486.075" width="5.78069" height="15.962" rx="2.89035" transform="rotate(11.8649 231.427 486.075)" stroke="#2D2D2D" stroke-width="2"/>
<rect x="-27.2932" y="831.603" width="49.2004" height="67.1688" rx="7" transform="rotate(-17.8645 -27.2932 831.603)" stroke="#2D2D2D" stroke-width="2"/>
<line x1="-13.0044" y1="846.325" x2="17.3179" y2="836.552" stroke="#2D2D2D" stroke-width="2" stroke-linecap="round"/>
<line x1="-10.0112" y1="855.609" x2="20.311" y2="845.836" stroke="#2D2D2D" stroke-width="2" stroke-linecap="round"/>
<line x1="-7.01905" y1="864.893" x2="23.3032" y2="855.12" stroke="#2D2D2D" stroke-width="2" stroke-linecap="round"/>
<line x1="-4.29932" y1="873.334" x2="26.023" y2="863.561" stroke="#2D2D2D" stroke-width="2" stroke-linecap="round"/>
<line x1="-1.30615" y1="882.618" x2="29.0161" y2="872.845" stroke="#2D2D2D" stroke-width="2" stroke-linecap="round"/>
<line x1="34.2253" y1="831.34" x2="41.2288" y2="853.069" stroke="#2D2D2D" stroke-width="2" stroke-linecap="round"/>
<path d="M25.1546 806.313L26.6408 805.834C28.7434 805.156 30.9973 806.311 31.675 808.414L48.8767 861.785L39.7762 864.718L22.5745 811.347C21.8968 809.245 23.0519 806.991 25.1546 806.313Z" stroke="#2D2D2D" stroke-width="2"/>
<line x1="25.7372" y1="821.726" x2="34.3831" y2="818.939" stroke="#2D2D2D" stroke-width="2"/>
<path d="M40.501 865.984L49.0866 863.192L48.751 876.768L40.501 865.984Z" stroke="#2D2D2D" stroke-width="2"/>
<rect x="2.28418" y="813.565" width="5.78069" height="15.962" rx="2.89035" transform="rotate(-17.8645 2.28418 813.565)" stroke="#2D2D2D" stroke-width="2"/>
<rect x="-8.71973" y="817.112" width="5.78069" height="15.962" rx="2.89035" transform="rotate(-17.8645 -8.71973 817.112)" stroke="#2D2D2D" stroke-width="2"/>
<path d="M168.551 84.9091L168.926 84.7769C170.809 84.1657 172.857 84.273 174.672 85.0874L192.844 93.2443C194.78 94.1131 196.292 95.7155 197.046 97.6985L212.528 138.397C214.099 142.527 212.024 147.148 207.895 148.719L174.497 161.423C170.368 162.994 165.746 160.92 164.176 156.79L143.686 102.927C142.115 98.7974 144.189 94.1762 148.319 92.6053L168.551 84.9091Z" stroke="#2D2D2D" stroke-width="2"/>
<path d="M183.261 90.299L193.643 94.9591L186.773 97.5722C181.869 99.4376 176.382 96.9745 174.516 92.0706L172.023 85.517L183.261 90.299Z" fill="#2B2B2B" stroke="#2D2D2D"/>
<circle cx="175.19" cy="142.15" r="7" transform="rotate(-20.8267 175.19 142.15)" fill="#2B2B2B" stroke="#2D2D2D"/>
<circle cx="195.021" cy="128.186" r="7" transform="rotate(-20.8267 195.021 128.186)" fill="#2B2B2B" stroke="#2D2D2D"/>
<path d="M179.157 141.187L170.976 119.68" stroke="#2D2D2D" stroke-width="7"/>
<path d="M198.82 126.868L190.903 106.055" stroke="#2D2D2D" stroke-width="7"/>
<path d="M190.94 102.757C191.748 102.234 192.832 102.597 193.162 103.501L194.939 108.356C195.184 109.024 194.925 109.771 194.321 110.146L171.281 124.44C170.473 124.941 169.407 124.573 169.08 123.681L167.486 119.322C167.245 118.664 167.492 117.927 168.08 117.547L190.94 102.757Z" fill="#2B2B2B" stroke="#2D2D2D"/>
<path d="M428.665 370.529L429.014 370.719C430.728 371.71 432.018 373.304 432.627 375.198L438.72 394.162C439.369 396.182 439.19 398.378 438.22 400.265L418.325 438.998C416.307 442.928 411.484 444.478 407.554 442.459L375.769 426.133C371.839 424.114 370.29 419.292 372.308 415.362L398.639 364.1C400.657 360.17 405.48 358.62 409.41 360.639L428.665 370.529Z" stroke="#2D2D2D" stroke-width="2"/>
<path d="M434.499 385.068L437.98 395.903L431.443 392.545C426.776 390.148 424.936 384.421 427.333 379.754L430.536 373.517L434.499 385.068Z" fill="#2B2B2B" stroke="#2D2D2D"/>
<circle cx="390.559" cy="413.755" r="7" transform="rotate(27.1871 390.559 413.755)" fill="#2B2B2B" stroke="#2D2D2D"/>
<circle cx="414.204" cy="419.155" r="7" transform="rotate(27.1871 414.204 419.155)" fill="#2B2B2B" stroke="#2D2D2D"/>
<path d="M393.928 416.059L404.442 395.591" stroke="#2D2D2D" stroke-width="7"/>
<path d="M417.725 421.096L427.9 401.289" stroke="#2D2D2D" stroke-width="7"/>
<path d="M430.375 399.11C431.304 399.361 431.759 400.409 431.309 401.26L428.889 405.828C428.556 406.457 427.828 406.764 427.145 406.566L401.107 399.002C400.194 398.737 399.754 397.699 400.2 396.859L402.373 392.757C402.701 392.139 403.413 391.83 404.089 392.012L430.375 399.11Z" fill="#2B2B2B" stroke="#2D2D2D"/>
<path d="M89.6651 384.529L90.0142 384.719C91.7279 385.71 93.0184 387.304 93.6269 389.198L99.7203 408.162C100.369 410.182 100.19 412.378 99.2204 414.265L79.3253 452.998C77.3066 456.928 72.484 458.478 68.5539 456.459L36.7693 440.133C32.8391 438.114 31.2896 433.292 33.3083 429.362L59.6388 378.1C61.6575 374.17 66.48 372.62 70.4101 374.639L89.6651 384.529Z" stroke="#2D2D2D" stroke-width="2"/>
<path d="M95.499 399.068L98.9803 409.903L92.4426 406.545C87.7756 404.148 85.9355 398.421 88.3327 393.754L91.5364 387.517L95.499 399.068Z" fill="#2B2B2B" stroke="#2D2D2D"/>
<circle cx="51.5591" cy="427.755" r="7" transform="rotate(27.1871 51.5591 427.755)" fill="#2B2B2B" stroke="#2D2D2D"/>
<circle cx="75.2037" cy="433.155" r="7" transform="rotate(27.1871 75.2037 433.155)" fill="#2B2B2B" stroke="#2D2D2D"/>
<path d="M54.9284 430.059L65.4418 409.591" stroke="#2D2D2D" stroke-width="7"/>
<path d="M78.7255 435.096L88.8996 415.289" stroke="#2D2D2D" stroke-width="7"/>
<path d="M91.3749 413.11C92.3038 413.361 92.7593 414.409 92.3088 415.26L89.8887 419.828C89.5558 420.457 88.8276 420.764 88.1449 420.566L62.1069 413.002C61.1938 412.737 60.7544 411.699 61.1995 410.859L63.3728 406.757C63.7007 406.139 64.4133 405.83 65.0894 406.012L91.3749 413.11Z" fill="#2B2B2B" stroke="#2D2D2D"/>
<path d="M225.507 764.99L225.881 764.856C227.761 764.237 229.81 764.336 231.628 765.143L249.833 773.226C251.772 774.087 253.291 775.683 254.053 777.663L269.7 818.299C271.288 822.422 269.232 827.051 265.109 828.639L231.764 841.479C227.64 843.067 223.011 841.011 221.423 836.888L200.715 783.109C199.127 778.985 201.183 774.356 205.306 772.768L225.507 764.99Z" stroke="#2D2D2D" stroke-width="2"/>
<path d="M240.238 770.32L250.639 774.938L243.78 777.579C238.884 779.464 233.386 777.023 231.501 772.127L228.981 765.584L240.238 770.32Z" fill="#2B2B2B" stroke="#2D2D2D"/>
<circle cx="232.379" cy="822.203" r="7" transform="rotate(-21.0595 232.379 822.203)" fill="#2B2B2B" stroke="#2D2D2D"/>
<circle cx="252.153" cy="808.159" r="7" transform="rotate(-21.0595 252.153 808.159)" fill="#2B2B2B" stroke="#2D2D2D"/>
<path d="M236.341 821.224L228.072 799.751" stroke="#2D2D2D" stroke-width="7"/>
<path d="M255.946 806.825L247.944 786.045" stroke="#2D2D2D" stroke-width="7"/>
<path d="M247.968 782.747C248.774 782.221 249.86 782.579 250.194 783.482L251.991 788.33C252.238 788.996 251.982 789.745 251.38 790.122L228.398 804.51C227.592 805.014 226.525 804.651 226.194 803.759L224.582 799.407C224.339 798.75 224.583 798.012 225.169 797.63L247.968 782.747Z" fill="#2B2B2B" stroke="#2D2D2D"/>
<rect x="313.128" y="12.1345" width="64" height="35" rx="1" transform="rotate(22.3251 313.128 12.1345)" stroke="#2D2D2D" stroke-width="2"/>
<rect x="311.984" y="66.2565" width="25" height="6" rx="1.5" transform="rotate(22.3251 311.984 66.2565)" stroke="#2D2D2D"/>
<rect x="320.737" y="63.3649" width="11" height="6" transform="rotate(22.3251 320.737 63.3649)" stroke="#2D2D2D"/>
<rect x="309.857" y="4.3049" width="76" height="50" rx="1" transform="rotate(22.3251 309.857 4.3049)" stroke="#2D2D2D" stroke-width="2"/>
<mask id="path-81-inside-1_721_6868" fill="white">
<path d="M330.037 61.7788C329.512 63.056 328.052 63.6662 326.775 63.1418C325.497 62.6173 324.887 61.1567 325.412 59.8795C325.936 58.6023 327.397 57.9921 328.674 58.5165C329.951 59.041 330.561 60.5016 330.037 61.7788ZM326.652 60.3888C326.409 60.9811 326.692 61.6584 327.284 61.9016C327.876 62.1448 328.554 61.8618 328.797 61.2696C329.04 60.6773 328.757 59.9999 328.165 59.7567C327.572 59.5135 326.895 59.7965 326.652 60.3888Z"/>
</mask>
<path d="M330.037 61.7788C329.512 63.056 328.052 63.6662 326.775 63.1418C325.497 62.6173 324.887 61.1567 325.412 59.8795C325.936 58.6023 327.397 57.9921 328.674 58.5165C329.951 59.041 330.561 60.5016 330.037 61.7788ZM326.652 60.3888C326.409 60.9811 326.692 61.6584 327.284 61.9016C327.876 62.1448 328.554 61.8618 328.797 61.2696C329.04 60.6773 328.757 59.9999 328.165 59.7567C327.572 59.5135 326.895 59.7965 326.652 60.3888Z" fill="#2B2B2B" stroke="#2D2D2D" stroke-width="2" mask="url(#path-81-inside-1_721_6868)"/>
<path d="M347.537 44.8604C347.779 45.168 347.59 45.6219 347.201 45.6662L326.794 47.983C326.415 48.026 326.13 47.6462 326.276 47.2942L333.964 28.8519C334.111 28.4999 334.582 28.4355 334.818 28.7349L347.537 44.8604Z" stroke="#2D2D2D"/>
<rect x="187.571" y="301.765" width="64" height="35" rx="1" transform="rotate(-30.2007 187.571 301.765)" stroke="#2D2D2D" stroke-width="2"/>
<rect x="229.827" y="335.602" width="25" height="6" rx="1.5" transform="rotate(-30.2007 229.827 335.602)" stroke="#2D2D2D"/>
<rect x="232.859" y="326.894" width="11" height="6" transform="rotate(-30.2007 232.859 326.894)" stroke="#2D2D2D"/>
<rect x="179.367" y="299.598" width="76" height="50" rx="1" transform="rotate(-30.2007 179.367 299.598)" stroke="#2D2D2D" stroke-width="2"/>
<mask id="path-87-inside-2_721_6868" fill="white">
<path d="M237.258 318.549C237.952 319.742 237.548 321.273 236.355 321.967C235.161 322.662 233.631 322.257 232.936 321.064C232.242 319.871 232.646 318.34 233.839 317.646C235.033 316.951 236.563 317.356 237.258 318.549ZM234.095 320.39C234.417 320.943 235.127 321.13 235.68 320.808C236.234 320.486 236.421 319.777 236.099 319.223C235.777 318.67 235.067 318.482 234.514 318.804C233.96 319.127 233.773 319.836 234.095 320.39Z"/>
</mask>
<path d="M237.258 318.549C237.952 319.742 237.548 321.273 236.355 321.967C235.161 322.662 233.631 322.257 232.936 321.064C232.242 319.871 232.646 318.34 233.839 317.646C235.033 316.951 236.563 317.356 237.258 318.549ZM234.095 320.39C234.417 320.943 235.127 321.13 235.68 320.808C236.234 320.486 236.421 319.777 236.099 319.223C235.777 318.67 235.067 318.482 234.514 318.804C233.96 319.127 233.773 319.836 234.095 320.39Z" fill="#2B2B2B" stroke="#2D2D2D" stroke-width="2" mask="url(#path-87-inside-2_721_6868)"/>
<path d="M234.478 294.368C234.87 294.362 235.115 294.789 234.913 295.125L224.336 312.729C224.14 313.056 223.665 313.052 223.475 312.721L213.516 295.4C213.326 295.069 213.561 294.656 213.942 294.651L234.478 294.368Z" stroke="#2D2D2D"/>
<rect x="385.571" y="664.765" width="64" height="35" rx="1" transform="rotate(-30.2007 385.571 664.765)" stroke="#2D2D2D" stroke-width="2"/>
<rect x="427.827" y="698.602" width="25" height="6" rx="1.5" transform="rotate(-30.2007 427.827 698.602)" stroke="#2D2D2D"/>
<rect x="377.367" y="662.598" width="76" height="50" rx="1" transform="rotate(-30.2007 377.367 662.598)" stroke="#2D2D2D" stroke-width="2"/>
<path d="M432.478 657.368C432.87 657.362 433.115 657.789 432.913 658.125L422.336 675.729C422.14 676.056 421.665 676.052 421.475 675.721L411.516 658.4C411.326 658.069 411.561 657.656 411.942 657.651L432.478 657.368Z" stroke="#2D2D2D"/>
<rect x="111.003" y="609.729" width="64" height="35" rx="1" transform="rotate(55.6357 111.003 609.729)" stroke="#2D2D2D" stroke-width="2"/>
<rect x="80.3236" y="654.331" width="25" height="6" rx="1.5" transform="rotate(55.6357 80.3236 654.331)" stroke="#2D2D2D"/>
<rect x="89.2279" y="656.722" width="11" height="6" transform="rotate(55.6357 89.2279 656.722)" stroke="#2D2D2D"/>
<rect x="112.569" y="601.39" width="76" height="50" rx="1" transform="rotate(55.6357 112.569 601.39)" stroke="#2D2D2D" stroke-width="2"/>
<mask id="path-97-inside-3_721_6868" fill="white">
<path d="M97.8709 660.504C96.7312 661.283 95.1755 660.991 94.3961 659.851C93.6168 658.712 93.9089 657.156 95.0486 656.376C96.1884 655.597 97.7441 655.889 98.5234 657.029C99.3028 658.169 99.0106 659.724 97.8709 660.504ZM95.8054 657.483C95.2768 657.845 95.1414 658.566 95.5028 659.095C95.8642 659.623 96.5856 659.759 97.1142 659.397C97.6427 659.036 97.7782 658.314 97.4168 657.786C97.0554 657.257 96.3339 657.122 95.8054 657.483Z"/>
</mask>
<path d="M97.8709 660.504C96.7312 661.283 95.1755 660.991 94.3961 659.851C93.6168 658.712 93.9089 657.156 95.0486 656.376C96.1884 655.597 97.7441 655.889 98.5234 657.029C99.3028 658.169 99.0106 659.724 97.8709 660.504ZM95.8054 657.483C95.2768 657.845 95.1414 658.566 95.5028 659.095C95.8642 659.623 96.5856 659.759 97.1142 659.397C97.6427 659.036 97.7782 658.314 97.4168 657.786C97.0554 657.257 96.3339 657.122 95.8054 657.483Z" fill="#2B2B2B" stroke="#2D2D2D" stroke-width="2" mask="url(#path-97-inside-3_721_6868)"/>
<path d="M121.786 655.975C121.82 656.366 121.413 656.641 121.063 656.464L102.737 647.194C102.396 647.022 102.366 646.547 102.682 646.334L119.235 635.143C119.551 634.93 119.98 635.134 120.013 635.514L121.786 655.975Z" stroke="#2D2D2D"/>
<rect x="-29.3221" y="194.213" width="64" height="35" rx="1" transform="rotate(-5.86052 -29.3221 194.213)" stroke="#2D2D2D" stroke-width="2"/>
<rect x="-4.76699" y="242.458" width="25" height="6" rx="1.5" transform="rotate(-5.86052 -4.76699 242.458)" stroke="#2D2D2D"/>
<rect x="1.5836" y="235.774" width="11" height="6" transform="rotate(-5.86052 1.5836 235.774)" stroke="#2D2D2D"/>
<rect x="-35.9031" y="188.857" width="76" height="50" rx="1" transform="rotate(-5.86052 -35.9031 188.857)" stroke="#2D2D2D" stroke-width="2"/>
<mask id="path-103-inside-4_721_6868" fill="white">
<path d="M9.03089 229.984C9.17187 231.357 8.17272 232.585 6.79923 232.726C5.42573 232.867 4.19801 231.868 4.05703 230.494C3.91605 229.121 4.9152 227.893 6.28869 227.752C7.66219 227.611 8.88991 228.61 9.03089 229.984ZM5.39067 230.357C5.45605 230.994 6.02539 231.458 6.66234 231.392C7.29928 231.327 7.76263 230.758 7.69725 230.121C7.63187 229.484 7.06253 229.02 6.42558 229.086C5.78864 229.151 5.32529 229.72 5.39067 230.357Z"/>
</mask>
<path d="M9.03089 229.984C9.17187 231.357 8.17272 232.585 6.79923 232.726C5.42573 232.867 4.19801 231.868 4.05703 230.494C3.91605 229.121 4.9152 227.893 6.28869 227.752C7.66219 227.611 8.88991 228.61 9.03089 229.984ZM5.39067 230.357C5.45605 230.994 6.02539 231.458 6.66234 231.392C7.29928 231.327 7.76263 230.758 7.69725 230.121C7.63187 229.484 7.06253 229.02 6.42558 229.086C5.78864 229.151 5.32529 229.72 5.39067 230.357Z" fill="#2B2B2B" stroke="#2D2D2D" stroke-width="2" mask="url(#path-103-inside-4_721_6868)"/>
<path d="M16.4648 206.806C16.8238 206.963 16.8714 207.452 16.5494 207.675L-0.343329 219.356C-0.657028 219.573 -1.08823 219.373 -1.12527 218.993L-3.05993 199.107C-3.09674 198.727 -2.71215 198.448 -2.36252 198.6L16.4648 206.806Z" stroke="#2D2D2D"/>
<rect x="379.707" y="903.603" width="49.2004" height="67.1688" rx="7" transform="rotate(-17.8645 379.707 903.603)" stroke="#2D2D2D" stroke-width="2"/>
<line x1="393.996" y1="918.325" x2="424.318" y2="908.552" stroke="#2D2D2D" stroke-width="2" stroke-linecap="round"/>
<line x1="396.989" y1="927.609" x2="427.311" y2="917.836" stroke="#2D2D2D" stroke-width="2" stroke-linecap="round"/>
<line x1="399.981" y1="936.893" x2="430.303" y2="927.12" stroke="#2D2D2D" stroke-width="2" stroke-linecap="round"/>
<path d="M432.155 878.313L433.641 877.834C435.743 877.156 437.997 878.311 438.675 880.414L455.877 933.785L446.776 936.718L429.574 883.347C428.897 881.245 430.052 878.991 432.155 878.313Z" stroke="#2D2D2D" stroke-width="2"/>
<rect x="409.284" y="885.565" width="5.78069" height="15.962" rx="2.89035" transform="rotate(-17.8645 409.284 885.565)" stroke="#2D2D2D" stroke-width="2"/>
<rect x="398.28" y="889.112" width="5.78069" height="15.962" rx="2.89035" transform="rotate(-17.8645 398.28 889.112)" stroke="#2D2D2D" stroke-width="2"/>
<rect x="386.49" y="892.912" width="5.78069" height="15.962" rx="2.89035" transform="rotate(-17.8645 386.49 892.912)" stroke="#2D2D2D" stroke-width="2"/>
<path d="M85.5312 441.969H113.125V450.688H103.719V483H94.875V450.688H85.5312V441.969ZM113.5 469.625C113.5 465.479 114.823 462.094 117.469 459.469C120.115 456.844 123.51 455.531 127.656 455.531C131.51 455.531 134.74 456.875 137.344 459.562C139.969 462.229 141.281 465.542 141.281 469.5C141.281 473.542 139.969 476.896 137.344 479.562C134.74 482.229 131.469 483.562 127.531 483.562C123.094 483.562 119.646 482.156 117.188 479.344C114.729 476.51 113.5 473.271 113.5 469.625ZM133.406 469.625C133.406 467.812 132.812 466.229 131.625 464.875C130.438 463.521 129.052 462.844 127.469 462.844C125.823 462.844 124.406 463.479 123.219 464.75C122.031 466.021 121.438 467.542 121.438 469.312C121.438 471.25 122.021 472.896 123.188 474.25C124.375 475.604 125.802 476.281 127.469 476.281C129.052 476.281 130.438 475.625 131.625 474.312C132.812 472.979 133.406 471.417 133.406 469.625ZM147.5 469.625C147.5 465.479 148.823 462.094 151.469 459.469C154.115 456.844 157.51 455.531 161.656 455.531C165.51 455.531 168.74 456.875 171.344 459.562C173.969 462.229 175.281 465.542 175.281 469.5C175.281 473.542 173.969 476.896 171.344 479.562C168.74 482.229 165.469 483.562 161.531 483.562C157.094 483.562 153.646 482.156 151.188 479.344C148.729 476.51 147.5 473.271 147.5 469.625ZM167.406 469.625C167.406 467.812 166.812 466.229 165.625 464.875C164.438 463.521 163.052 462.844 161.469 462.844C159.823 462.844 158.406 463.479 157.219 464.75C156.031 466.021 155.438 467.542 155.438 469.312C155.438 471.25 156.021 472.896 157.188 474.25C158.375 475.604 159.802 476.281 161.469 476.281C163.052 476.281 164.438 475.625 165.625 474.312C166.812 472.979 167.406 471.417 167.406 469.625ZM182.594 441.281H190.594V483H182.594V441.281ZM199.281 441.969H222.375V449.906H208.062V458.281H222.375V466.281H208.125V483H199.281V441.969ZM226.938 469.625C226.938 465.479 228.26 462.094 230.906 459.469C233.552 456.844 236.948 455.531 241.094 455.531C244.948 455.531 248.177 456.875 250.781 459.562C253.406 462.229 254.719 465.542 254.719 469.5C254.719 473.542 253.406 476.896 250.781 479.562C248.177 482.229 244.906 483.562 240.969 483.562C236.531 483.562 233.083 482.156 230.625 479.344C228.167 476.51 226.938 473.271 226.938 469.625ZM246.844 469.625C246.844 467.812 246.25 466.229 245.062 464.875C243.875 463.521 242.49 462.844 240.906 462.844C239.26 462.844 237.844 463.479 236.656 464.75C235.469 466.021 234.875 467.542 234.875 469.312C234.875 471.25 235.458 472.896 236.625 474.25C237.812 475.604 239.24 476.281 240.906 476.281C242.49 476.281 243.875 475.625 245.062 474.312C246.25 472.979 246.844 471.417 246.844 469.625ZM269.281 456.125V460.094H269.406C270.198 458.76 271.115 457.708 272.156 456.938C273.219 456.146 274.198 455.75 275.094 455.75C275.635 455.75 276.125 455.792 276.562 455.875V464.625C275.896 464.5 275.24 464.438 274.594 464.438C272.948 464.438 271.667 465.021 270.75 466.188C269.854 467.333 269.406 468.948 269.406 471.031V483H261.281V456.125H269.281ZM300.938 481.469V478.312C298.542 481.354 295.771 482.875 292.625 482.875C289.25 482.875 286.427 481.573 284.156 478.969C281.906 476.365 280.781 473.104 280.781 469.188C280.781 465.396 281.948 462.177 284.281 459.531C286.635 456.865 289.458 455.531 292.75 455.531C295.542 455.531 298.271 456.99 300.938 459.906V456.188H308.875V483.375C308.875 484.875 308.396 486.594 307.438 488.531C306.5 490.49 304.885 491.927 302.594 492.844C300.323 493.781 297.688 494.25 294.688 494.25C290.958 494.25 287.969 493.552 285.719 492.156C283.49 490.76 281.885 488.365 280.906 484.969H289.875C291.625 487.406 293.521 488.625 295.562 488.625C297.146 488.625 298.438 487.958 299.438 486.625C300.438 485.312 300.938 483.594 300.938 481.469ZM289.312 469.406C289.312 470.781 289.906 472.125 291.094 473.438C292.302 474.729 293.708 475.375 295.312 475.375C296.875 475.375 298.208 474.76 299.312 473.531C300.438 472.281 301 470.76 301 468.969C301 467.135 300.469 465.625 299.406 464.438C298.344 463.25 296.979 462.656 295.312 462.656C293.625 462.656 292.198 463.281 291.031 464.531C289.885 465.76 289.312 467.385 289.312 469.406ZM341.938 471.469H322.781C322.885 473.198 323.448 474.604 324.469 475.688C325.51 476.771 326.719 477.312 328.094 477.312C330.552 477.312 332.479 476.198 333.875 473.969L341.219 476.406C338.49 481.177 334.25 483.562 328.5 483.562C324.271 483.562 320.906 482.281 318.406 479.719C315.906 477.156 314.656 473.708 314.656 469.375C314.656 465.479 315.969 462.208 318.594 459.562C321.24 456.917 324.49 455.594 328.344 455.594C332.219 455.594 335.448 456.99 338.031 459.781C340.635 462.552 341.938 466.021 341.938 470.188V471.469ZM322.844 466.094H333.656C332.906 462.74 331.188 461.062 328.5 461.062C326.958 461.062 325.677 461.5 324.656 462.375C323.656 463.25 323.052 464.49 322.844 466.094Z" fill="#BFBF19"/>
</g>
<defs>
<clipPath id="clip0_721_6868">
<rect width="428" height="926" fill="white"/>
</clipPath>
</defs>
</svg>
